<mxfile host="app.diagrams.net" modified="2024-03-27T05:36:17.816Z" agent="Mozilla/5.0 (Macintosh; Intel Mac OS X 10_15_7) AppleWebKit/537.36 (KHTML, like Gecko) Chrome/123.0.0.0 Safari/537.36" version="24.1.0" etag="1XWSIV388y9jCI1RMmW3" type="github">
  <diagram name="Page-1" id="7adLxPBNDACRK67hd0sj">
    <mxGraphModel>
      <root>
        <mxCell id="0" />
        <mxCell id="1" parent="0" />
      </root>
    </mxGraphModel>
  </diagram>
</mxfile>
